<?xml version="1.0" encoding="UTF-8"?><svg id="Layer_2" xmlns="http://www.w3.org/2000/svg" viewBox="0 0 379.68716 285.16786"><g id="Layer_1-2"><path d="M180.75961,0l.62074.87473c5.57416.10539,11.1629.01479,16.74271.04626l.57453-.92099h2.06977c.02754,1.04079,1.09101.48748,1.7424.90227,1.10183.70163,1.58896,4.23976,2.00786,5.58131.4459,1.42803,1.02924,2.85662,1.4623,4.28705.59001,1.94885,1.35225,6.29082,2.37538,7.74348,1.36614,1.93966,2.96212,1.01863,4.89058,1.31872,1.05732.16453,2.42548.97227,3.49696,1.10051,2.25959.27046,4.1301-1.12351,5.63639-2.65611l8.73153-11.04636c.54946-.50596,1.65423-.41498,2.36315-.26609,2.17429.45666,5.76916,2.40372,8.02397,3.24396,4.146,1.54498,9.39796,2.99371,13.30993,4.85802,2.33365,1.11214,1.43667,1.69647,1.38572,3.67842-.11078,4.30904-.5573,8.6027-.91859,12.8801-.15017,1.77795-.27343,3.1395,1.1639,4.3479,1.26384,1.06254,4.888,3.25609,6.4413,4.1375,1.13475.64391,1.52454,1.1078,2.97829.71614,3.83917-2.36333,7.87826-4.37907,11.79852-6.59743,1.74049-.98489,2.09775-2.29168,4.2933-.54021,2.89596,2.31021,6.0968,6.18523,8.84583,8.86215,1.34389,1.30865,3.03126,2.59221,4.38171,3.89735.96522.93283,3.36705,3.09816,4.01811,4.03032,1.02602,1.46901-.13075,2.78316-.87996,4.17941-1.81435,3.38129-5.36647,7.94206-6.68552,11.25175-.88294,2.21541,1.54006,4.04157,2.69743,5.76573,1.03239,1.53797,3.20455,5.74217,4.86161,6.1772.70519.18513,1.44781.14617,2.16414.0793,4.09552-.38228,8.17747-1.36451,12.21415-1.81253,2.03252-.22558,2.98115.00306,3.91095,1.84185l8.53013,21.15274c.27802,1.00536-.42883,1.94029-1.04709,2.65747l-10.24816,8.61074c-.44115,1.00418,2.34982.86054,2.87866,1.3892.45235.53757-1.50775.70831-1.7236.70432-3.34513-.06188-7.60636-.99206-11.04091-1.3958-1.64705-.19362-3.39838.21788-4.87085-.99252-11.30847-31.33603-35.75851-57.88696-66.93572-70.01481-20.20966-7.8615-43.85275-9.97827-65.08629-6.32806-36.69206,6.30766-68.13121,30.40645-84.38816,63.71514-1.69526,3.47341-2.96738,7.66889-4.69409,10.94414-.46309.8784-1.01101,1.79012-1.99545,2.14408-3.20973,1.15409-8.44171,1.81581-11.60043.47004-3.05641-1.30217-4.92821-3.95423-7.29998-6.03851-.88944-.78163-5.29604-3.80348-5.47444-4.4136-.14087-.48178-.10329-1.45714.01348-1.96149.53389-2.30598,2.96418-6.85786,3.95488-9.38283,1.41642-3.61002,2.8329-8.45488,4.56454-11.77027,1.26194-2.41611,4.51747-1.0762,6.71598-.87414,2.28342.20986,4.60965.26388,6.89238.46679,1.02316.09095,2.20359.47737,3.22127.47725,3.21918-.00039,4.09105-3.13738,5.67832-5.38216.74356-1.05158,2.78274-3.21404,3.19484-4.16424.53467-1.23281.13582-2.21909-.3889-3.32632-1.75099-3.69479-5.43554-8.54842-6.69129-12.16569-.43876-1.26388-.4315-1.91084.47261-2.95979,3.65895-4.2451,9.08654-8.8144,13.15186-12.9433,1.29496-1.31522,3.35221-4.67111,5.45653-4.0981l12.66337,7.80394c2.65602,1.47957,4.27473-1.12204,6.19349-2.40981,1.89269-1.27027,4.05419-2.02502,5.89447-3.30108-.74921-3.91513-.96151-7.94266-1.3565-11.91998-.17034-1.71517-.69924-3.76113-.70556-5.52124-.00672-1.87157,1.32186-2.16875,2.78918-2.74919,3.81299-1.50834,8.08283-2.72213,11.97999-4.1182,2.32556-.83307,6.67242-3.02984,8.83454-3.35184,1.19368-.17777,2.15704-.00842,2.988.89307,2.22437,2.41315,4.46738,6.39846,6.5424,9.09584.59702.77609,2.79895,3.67678,3.46105,3.89819,1.87256.6262,4.67966-.59212,6.60203-.9651,1.41702-.27493,4.68036-.18537,5.58123-1.31799.21153-.26595.5254-1.08315.62831-1.44146,1.22533-4.26669,1.92596-8.95779,3.10139-13.22677.25563-.92842.79588-2.44419,1.65612-2.94266.77523-.44921,1.7266.22737,1.50773-.9077h3.67958Z" style="fill:#0065ca;"/><path d="M175.70018,285.16786c-.44295-.94955-.9187-2.00409-1.26492-2.9896-.5526-1.57291-1.62329-6.31372-2.66262-7.22626-.22996-.20191-.77226-.48057-1.0689-.54092-2.33118-.47431-4.88612-.56436-7.25315-1.02592-3.25553-.63481-6.47224-1.69044-9.69411-2.47502-.69835.27706-1.47005.48182-2.09078.91705-2.21104,1.55031-4.60483,5.00709-6.80344,6.53522-.53902.37464-.95163.75813-1.68091.5907l-21.41961-10.33386c-.63579-.36563-1.1215-.75039-1.2416-1.51807-.46988-3.00347.76856-6.96284.69772-9.87564-.05908-2.42931-3.34632-3.40927-5.06041-4.61956-2.26577-1.59983-4.3612-3.46353-6.47867-5.24982-.82171-.45249-1.71419-.50345-2.56564-.07271l-8.39985,4.49195c-1.65094.40751-3.21541-2.05737-4.30409-3.18516-1.66178-1.72147-3.98061-3.71542-5.52707-5.50468-.99892-1.15576-1.77477-1.81817-.58192-3.11784,3.46912-3.77976,7.71075-5.05362,12.77127-4.70212,3.90041.27092,6.20177.01937,9.88194-.01259,3.08945-.02683,3.57091-.31533,6.08412,1.52456,2.27208,1.66336,4.38602,3.6287,6.7043,5.25435,31.52438,22.10595,72.70713,27.31657,108.49643,12.62884,11.41879-4.68621,22.02971-11.20818,31.4093-19.18499,1.56719-.67612,5.14531-.00012,6.90742.02717,3.83433.05937,8.2277-.32793,11.96452-.00587,2.20037.18964,3.89724,1.33142,5.52892,2.75015.66907.58175,2.9021,2.63248,2.5333,3.44928l-9.65592,9.90777c-.54787.34148-1.40415.29786-2.02171.155-1.89771-.43901-5.4316-3.12382-7.60587-3.88979-.68141-.24005-1.42606-.56098-2.11861-.2014-2.1621,1.40312-4.03306,3.23121-6.14749,4.68271-.78281.53738-4.82245,2.77374-5.01418,3.08046-.50441.80692-.30927,3.51793-.21493,4.55235.13838,1.51726,1.05036,4.4076.92865,5.75182-.04258.47027-.45104,1.44722-.7345,1.80571-.66792.84472-8.4039,4.35431-10.03113,5.14715-3.33849,1.62662-6.82554,3.24146-10.14257,4.79696-1.90532.89349-2.80842,2.37102-4.97356.78219-1.40136-1.02835-6.16763-6.70844-7.13559-6.89301-.52724-.10053-1.94507-.06651-2.51188.00741-2.38632.31117-5.57593,1.52927-8.11958,1.99949-1.96875.36394-3.95734.6322-5.93866.9606-1.64341.2724-2.42727-.25907-3.36758,1.69287-1.09887,2.2811-1.52274,5.18776-2.31717,7.57028-.17153.51443-.58074,1.08218-.85231,1.56278h-26.90696Z" style="fill:#0065ca;"/><path d="M319.36654,205.66137c1.81419,2.30051-2.00573,8.20348,1.84842,9.76812,6.03559-.25727,12.07921-.10179,18.12123-.16427,2.87017-.02968,5.86114-.28042,8.72064-.2505,1.33132.01393,6.11846-.19133,6.96622.29851.90219.52129.19531,1.47502.10777,1.95044-4.29157,23.30674-24.95358,28.83217-45.68222,30.43692-2.33946.18111-4.58278.74015-7.12882.42253-6.25446-.78024-6.61772-7.74194-10.47082-11.83826-4.96262-5.27587-13.52436-4.15912-20.12574-4.25205-4.5191-.06361-9.08128-.16583-13.56787-.22844-36.8363-.51412-73.68168-.79656-110.40799-.46142-14.67669.13393-29.55528.27257-44.13475.711-9.26381.27858-14.71829-1.11999-20.08789,7.96813-1.38934,2.35147-2.35745,6.04308-4.85987,7.32868-1.88245.96709-5.16246.90366-7.26751.80085-12.95183-.63262-33.11995-4.83438-41.49554-15.53795-2.60002-3.32269-6.66708-11.25338-7.14136-15.39581-.14274-1.24677-.05468-1.81567,1.26776-1.96621,5.34137-.60802,12.45701.19826,17.9311.24501,5.25609.04489,10.5264.02722,15.77905-.11108.59462-.19655,1.06339-1.00837,1.14517-1.61452.18893-1.40032.04661-4.01991-.00798-5.52992-.01992-.5512-.40767-1.05265-.3421-1.51253.10753-.75415.56451-1.49434,1.3642-1.60236,5.44557-.73558,12.56167.56416,18.18803.0201,1.82588-.16417,3.91948-.42706,5.73046-.479,5.63711-.16166,3.99483,1.21437,6.47491,4.8128,1.42442,2.06674,3.17096,3.07173,5.71327,3.25572l186.29714-.00157c2.4691-.20391,4.70056-1.56267,5.95136-3.70755.95655-1.6403.98693-3.90873,3.29444-4.2947,3.13208-.5239,7.28541.28256,10.53316-.06462,5.05985.77568,11.09429-.16288,16.09799.45931.34108.04241.98966.28292,1.18815.53462ZM76.06179,210.23078c-1.2405.22012-1.92204,2.20314-2.01943,3.29086-.39427,4.40353.39673,8.94512.47872,13.3383.08836,4.73448-.54746,10.94008-.02075,15.42902.01611.13727.00334.27783.04842.4115l.54154.39062.54631-.37841c.89158-2.80389,3.14687-5.2318,3.25346-8.24501.14623-4.13392-.14092-8.95185-.24842-13.10812-.07001-2.7069.15733-6.62933-.23525-9.19369-.16662-1.08835-1.22602-2.13354-2.34461-1.93506ZM299.96749,210.73746c-.30472.30356-.49829.7416-.55119,1.17453-.5875,4.80792.20369,11.27739.01952,16.34688-.05305,1.46037-.58469,3.10088-.46722,4.58788.17506,2.21601,1.71703,6.8889,3.11238,8.61579.76307.94438,1.21168.50206,1.27305-.56007.06464-1.1187-.27684-2.60718-.25766-3.9237.06284-4.31403.42491-8.77582.47888-13.08951.05178-4.13934-.05349-8.28375-.01425-12.42332-.52433-1.30134-2.57494-1.74316-3.5935-.72847ZM296.66653,210.65626c-2.17725-.11599-1.17072,1.84569-1.14051,3.0951.15375,6.35724-.1353,12.73689-.00815,19.09619l.34765.57237c.22935.11929.801-.15329.801-.34118v-22.42247ZM82.53647,232.70707c.4924-1.29913-.19933-2.42354.26466-3.75881-.52775-5.22851.66624-11.73739.00032-16.80798-.16168-1.23108-1.35387-1.50221-1.37242-.20394-.09349,6.54418.14161,13.27505-.02154,19.76679-.0085.3381.13364.69248.26646.99678l.86252.00716ZM63.93147,241.70689l-33.57369-19.55077c-.3978.4452.96919,2.90606,1.25874,3.45337,2.35776,4.45659,5.11484,6.92574,9.43581,9.42206,6.90712,3.99039,14.39042,5.61878,22.10654,7.35291l.54943-.09762.22317-.57994ZM347.42461,222.42893l-33.04545,19.61878c.32773.47529.7449.35787,1.22897.32132,2.47271-.18673,7.55782-1.42822,10.08012-2.11612,7.36349-2.00822,14.46665-5.26123,19.00031-11.58624.70291-.98065,3.15451-4.65164,3.39249-5.58191.13941-.54498-.12661-.79415-.65643-.65583ZM119.47152,225.73363c-6.96167.04074-14.47059.01378-21.39707.3214-1.03444.04594-2.98324.10519-3.88668.25285-1.85841.30375-1.73944,2.10216.43555,2.29736,2.21679.19895,4.54402-.22199,6.67077-.25047,38.97358-.52199,78.06734-.26664,117.07724-.20953,20.34676.02979,40.81028-.11528,61.17162.43951,1.24393.03389,4.66222.7907,5.5239.0225.68003-.60625.36812-1.78929-.36416-2.19247-17.40715-.26727-34.88875-.06249-52.32486-.10933-37.55705-.10089-75.38651-.79141-112.9063-.57182Z" style="fill:#0065ca;"/><path d="M245.15109,86.93133l-.21612,1.50639c-5.31171,6.21353-12.7797,12.2479-15.08237,20.33355-1.79413,6.29997-1.90539,7.96652-5.98335,13.33394-1.58865,2.09098,3.14972.83502,3.93825.71915,8.6019-1.26403,17.35164-3.6035,25.79353-5.48294,3.49538-.77818,7.64789-1.26739,11.04226-2.30653,1.77657-.54387,1.61546-4.82317,1.66913-6.36972.01557-.44875.23909-.89804.24738-1.38325.01892-1.10833-.97269-3.05783.66673-3.33295.25243.80814.60234,1.5528.69048,2.41679.23106,2.26507.27683,7.90295.00909,10.12232-.04865.40324-.14044.54445-.27679.87879-.69255,1.69819-5.64415,3.52206-7.43386,4.28922-6.60484,2.83116-13.63234,5.02779-20.52818,7.06871-.91491.27078-5.56116,1.15098-5.78672,1.81693-.32148.94917,1.91255,3.20167,2.5058,4.11508.77716,1.19658,2.48151,4.92972,3.8138,5.15352.63535.10673,1.57813.03896,2.23373-.03963.86666-.10389,2.22796-.64018,3.09512-.81465,4.03065-.81098,8.09103-1.77492,12.08831-2.58946.05814-.01185.57503-.70496.97304-.6794.8672-.99169-3.47712-.05253-3.71177-.03012-.7079.06762-4.43082.40669-4.68588.02498-.0379-.2536-.00716-.45652.11352-.68668.29155-.55603,3.53317-3.5871,4.25184-4.2583,1.64003-1.5317,3.67129-3.28415,5.41345-4.70541.94339-.76962,4.09745-3.44125,4.94701-3.7933,1.07936-.44727,1.77249.32126,1.79175,1.36689.0842,4.57055-.04665,14.85378-2.94241,18.41036-2.89431,3.55479-7.90484,2.60713-11.85302,2.86635-6.9867.45873-14.10453,1.14227-21.1573,1.37813-.88255.02952-2.53367.23975-2.63878-.91099.53302.01041.64717-.59344,1.01691-.93732,1.32795-1.2351,4.04893-2.19022,2.97769-4.33391-.69861-1.39802-3.41469-4.91056-4.50102-6.30596-.88549-1.13742-1.66363-2.40485-3.12288-2.85645-3.72657-1.15327-11.181-.6065-15.35742-.74029-16.30372-.52228-32.86322-.9625-49.20889.6763-1.94455.19496-4.25732.15996-6.19165.47759-1.23213.20233-2.18909,1.19319-3.00678,2.05265-2.06609,2.17165-3.72989,5.10223-5.7676,7.35382-.23309.58005-.00041,1.05605.36158,1.51082.68654.86252,3.49571,2.48477,3.80447,3.09346.96046,1.89343-2.60574.93909-3.44515.91421-8.40964-.24927-16.4331-.44322-24.63495-1.81205-1.91887-.32024-3.61825-.47647-5.41618-1.48304-1.22884-.68797-1.82343-1.39188-2.36141-2.69802-1.27445-3.09421-1.37578-9.7813-1.74984-13.42846-.15223-1.48431-.65051-2.95381-.43956-4.46741.30261-.0436.62855-.1522.93551-.12135.99631.10015,5.23226,3.14218,6.34651,3.94213,2.97189,2.13362,6.80859,5.07908,9.37741,7.65419.5206.52188,1.17165,1.03543.66519,1.87013-2.12189.6432-4.29964-.20184-6.43016-.03526-.41062.0321-.74342-.06632-1.01961.35482.00639.15481,1.09227.63608,1.33621.72891,3.76671,1.43335,9.23898,2.41448,13.21077,3.11738.8849.1566,1.77613.81049,2.9237.29038.50091-.22703,5.82142-8.8555,5.71857-9.39576-1.88593-1.5431-4.97318-1.83615-7.32538-2.56034-5.63617-1.73527-11.74689-3.48162-17.24199-5.52545-2.18421-.81239-7.79968-2.79904-8.7243-4.84416-.11768-.26028-.72395-2.08882-.73399-2.27556-.0882-1.63995-.12548-4.57195.02506-6.2104.06361-.69233.44529-3.49853,1.37623-2.74181.32909,2.35352.19818,7.10044,2.06481,8.72563,1.28204,1.11622,5.38903,1.17336,7.23224,1.50677,9.57558,1.73209,19.11458,4.65232,28.73834,5.98774.70247.09748,4.88604,1.00285,4.96529.0893-.62612-.8188-1.44793-1.45498-2.06022-2.30445-2.94162-4.08113-3.14829-8.26031-4.19681-12.82126-.87776-3.81814-5.88655-9.12009-8.46506-12.17906-1.66945-1.98052-3.49355-3.91986-5.27984-5.81031-.41109-.61636-.47003-1.03485-.22699-1.7268,1.61294.98533,3.14525,2.12613,4.6,3.33097,3.52417,2.91876,10.29679,8.92897,12.8675,12.48275,1.18625,1.63989,1.38156,3.88309,3.82805,3.93933,4.73149.10877,9.71406-.36107,14.45318-.4451,13.93437-.24707,27.78172-.25223,41.64427,0,3.59108.06534,8.71067.72849,12.19144.25166,2.09426-.28689,2.01428-2.6818,2.81411-4.08501,1.95519-3.43016,13.5482-14.27988,17.08623-16.25992.41457-.23201.87763-.38212,1.35871-.36381ZM221.6007,120.18274c.48368-.65582,2.39697-4.24909,2.38918-4.85788-.00419-.3279-.22766-.50298-.46142-.67806-.74861-.56068-4.90329-.40845-6.08506-.34675-18.26179.95358-38.23074.94291-56.58602.46648-1.02572-.02662-5.89594-.771-6.4889-.18467-.68825.68055.28506,2.70003.67561,3.46825,3.7913,7.45766,9.90095,6.50135,17.09384,6.82346,13.47423.6034,26.58772-.17611,40.02211-.2385,2.21084-.01027,3.96932-.15278,6.00933-1.33,1.10466-.63746,2.67675-2.09918,3.43134-3.12234Z" style="fill:#0065ca;"/><path d="M344.40748,123.3604c4.76842,3.82164,8.63185,9.9704,10.59784,15.73355.41905,1.22842,1.49205,4.6452,1.57737,5.77218.04215.55678-.73043,1.16691-1.21394,1.3359l-34.51723.21418c-1.56527.48659-.9351,1.3409-1.00445,2.26156-.12393,1.64519-.18669,3.46289-.1607,5.08474.02456,1.53291.79955,3.18141-.58183,4.47518l-28.29731.2094c-1.84573-.91122-2.03647-2.99226-3.33434-4.48477-2.49747-2.87201-4.85803-2.23541-8.15992-2.16994-2.07932.04123-4.20524-.04385-6.21929-.0105-1.28611.0213-3.73282.90171-4.14952-.92208.62545-4.05095.43485-8.50863,1.05875-12.51702.152-.97656,1.02668-1.40503,1.93597-1.51364,3.74924-.44784,8.34425.35018,12.18842-.00034,1.1613-.21784,1.41313-1.7061.23628-2.06453l-12.59323-.05548c-1.93754-.49051-2.26177-4.72808.1687-5.00866,2.04775-.2364,4.76155.0552,6.91401.01464,1.69709-.03198,3.94048.12299,5.4856-.03365,3.93004-.39841,6.76238-2.32986,8.86963-5.61871,1.80924-2.82373,3.64625-9.62202,6.68067-10.79736,2.53633-.98241,10.80395.21307,13.88653.5962,9.51811,1.18299,22.85004,3.26233,30.63197,9.49915ZM339.11875,126.34972c-4.07459-2.79276-8.93384-4.16608-13.60816-5.59563l-9.98491-1.85639c-.07167.51371-.00893.59525.37365.88886.53859.41334,2.01735.9334,2.76921,1.37031,8.68158,5.0449,17.25557,10.46373,25.7929,15.65395.7897.48009,3.55839,2.33873,4.11173,2.50653.18091.05486.3423.0654.52625.04579.28928-.29743-1.47206-3.50741-1.79335-4.06863-1.90307-3.32421-5.0232-6.77609-8.18731-8.94479ZM303.33475,120.04582c-.46821-.03476-.83806-.03707-1.16237.33214-.23793.27086-1.51618,3.47346-1.70183,4.04747-1.15006,3.55579-1.31502,7.43352-1.28379,11.15378.95206,5.23661-.45803,11.65491.22726,16.79082.26788,2.00766,3.82951,2.36653,4.15154-.47233.8731-7.69678-.66034-16.98028.00967-24.8465l-.24048-7.00537ZM296.66653,153.04775v-21.84754c0-.39138-1.13458-1.00706-1.37354.23633-.20613,4.85473-.12081,9.64845.00318,14.47253.05218,2.03029-.33148,5.33425-.00841,7.1376.05973.33342.1853.60801.57416.58526.23674-.00235.75626-.41133.80462-.58418Z" style="fill:#0065ca;"/><path d="M93.71443,134.76481c-.40788.12559-.4656,1.03308-.23977,1.39081.09671.14225,1.37132.62566,1.63427.6643,2.72228.4,5.87712-.16424,8.51297-.42684,1.46057-.14551,3.05156-.18023,4.25248.76991l1.77126,14.11163c-.39044.23602-.72805.46061-1.20299.51916-4.89875.60389-14.11391-1.60993-17.72297,2.28375-1.33134,1.43633-1.72415,3.84169-3.91659,4.36248l-26.44927.02751c-.86998.04508-1.78723-.67952-1.92676-1.52273-.31805-1.92204-.01646-5.45391-.02383-7.58592-.00447-1.2924.56688-2.2046-1.12772-2.99235l-34.51916-.20689c-.97422-.34757-1.03857-1.12797-.89619-2.06827.51975-3.43245,3.26724-9.81457,5.12935-12.8086,7.41269-11.91867,19.11925-14.44305,31.98113-16.54339,4.79869-.78363,11.47663-1.92739,16.35623-1.60257,6.39787.4259,5.63716,5.12749,8.1142,9.59389,1.1913,2.14807,3.69501,5.02543,5.97788,5.98077,3.97526,1.66357,8.42535.60998,12.56506.5245,1.09397-.02259,3.60438-.16949,4.50596.11249,1.30767.40899,1.96338,3.74913,1.14058,4.78066-.08186.10263-.75621.63572-.8076.63572h-13.10852ZM78.12751,153.32903c.87104-.88981.49433-2.06355.5119-3.03.0964-5.30364.16376-10.38064.4694-15.65167.29872-5.15166-1.83515-9.04367-3.59489-13.64844-.21288-.55706-.60565-3.14296-1.45803-2.56086-.42312.28895-.00307,1.7161.00683,2.17436.22329,10.33676-.2022,20.70172.00365,31.04076.19778,1.81872,2.75145,3.01377,4.06113,1.67586ZM62.51697,118.69975c-6.15667,1.69399-12.57947,2.48976-18.47695,5.02629-6.16306,2.65076-10.27129,6.60252-13.63866,12.34841-.35034.59781-2.03093,3.31415-1.65335,3.74869l34.26451-20.23954-.49556-.88385ZM81.77937,131.1049c-.37216.12309-.34339.46164-.37972.77402-.63091,5.42394.15427,13.04992.24103,18.63912.01203.77483-.49875,1.82867-.19235,2.72295l.53709.39166c.60162-.11151.74283-.483.81616-1.03392.52953-3.97806-.23143-9.07113-.2495-13.10865-.00189-.42306.25071-.88514.2484-1.3813-.00462-.99172.15031-6.66089-.22289-6.92483l-.79822-.07905Z" style="fill:#0065ca;"/><path d="M148.42994,96.49253c-3.21019-2.82383-6.18929-6.03656-9.75418-8.41667-.0638-.31643.0128-.37879.24152-.55782.80003-.62623,3.37142-.28881,4.48104-.34837,9.73523-.52255,19.65782-.28579,29.43819-.25034,19.21008.06963,38.67352-.43471,57.93356-.23012,2.0178.02143,4.8074.47855,6.456.43355,1.02548-.02799,3.03542-1.45833,2.19192,1.08889-3.52578,2.38776-6.99185,4.92856-10.13707,7.79931-4.59218,4.19145-6.38845,8.16705-13.45,8.41731-7.32151.25947-14.85526.31522-22.26901.35312-9.45069.04832-20.15291.37453-29.48487-.13376-1.62929-.08874-5.40894-.47509-6.82207-.99704-2.1053-.77761-6.85004-5.42077-8.82503-7.15807Z" style="fill:#0065ca;"/><path d="M234.66965,59.46723c4.26075,4.81868,9.41435,12.52364,12.86685,18.06461.68106,1.09304,2.9945,4.35319,2.2325,5.39162-.82016,1.11768-6.62793,1.59173-8.18348,1.70477-10.18263.73998-20.40677.25202-30.57336.22125-22.35706-.06766-45.41254,1.06027-67.63282.25042-4.16983-.15197-10.39946-.62548-14.37287-1.72531-1.21663-.33676-1.80529-.78931-1.24373-2.18347,1.14225-2.83579,6.64591-9.82192,8.74175-12.64396,5.81355-7.82791,8.72556-13.76687,19.30516-14.50102,21.23573-1.47361,41.72896-1.94577,63.00773-.45925,7.12352.49764,10.87741.25404,15.85227,5.88034ZM148.23884,59.46824c-2.06332,1.75001-5.16595,6.44908-6.89988,8.85397-2.76505,3.83501-5.18352,7.93067-8.15351,11.62251-.50809.85898-.35441,1.42396.65468,1.60581.75435.13594,3.67259-.11182,4.7169-.14204,16.81415-.48653,33.75148-.18557,50.60759-.21668,16.52451-.0305,33.13407-.51765,49.67292-.02044,1.00654.03026,4.54105.63291,5.15778.35344.18378-.08328.62359-.54649.67121-.73769-.73465-1.69165-2.22958-3.32238-3.29356-4.91088-3.22485-4.81464-6.45325-10.34806-9.92341-14.91379-3.1041-4.08409-4.89902-3.15397-9.4073-3.47124-21.14298-1.48796-42.81716-1.33607-63.93733.00008-3.53842.22385-6.92927-.51393-9.86609,1.97695Z" style="fill:#0065ca;"/><path d="M258.16818,59.19711c14.6324,11.04766,26.63963,26.7343,34.16857,43.44659.80955,1.79699,3.77835,8.35499,3.63528,9.90675-.07708.83603-.62911,1.26859-1.44335,1.01637-.72885-.22149-.56517-1.12674-.80541-1.73084-14.82547-37.28021-43.88474-64.12035-83.92459-71.30791-55.11248-9.89324-103.38106,18.28198-124.7079,69.05496-.24502.58331-.83074,2.67946-1.0275,2.88029-.73148.74663-2.15054-.06556-1.85814-1.38509.4483-2.02313,2.58596-6.58232,3.53538-8.66458,12.94029-28.38038,38.95765-52.35464,69.08065-61.31465,35.77307-10.64061,73.45198-4.47305,103.34701,18.0981Z" style="fill:#0065ca;"/><path d="M143.27384,166.04128v28.51679h-6.2093c.1347-5.24256-.17673-10.52068-.00949-15.7627.01662-.52104.65676-3.26976-.10425-3.31912-.92913.42614-1.04575,1.686-1.52832,2.60641-1.91933,3.6608-4.04773,7.21235-5.85262,10.93551-.6734,1.03242-3.55018.98231-4.33154.23304-1.72639-3.43413-3.70136-6.74142-5.50908-10.12915-.29738-.55729-1.45849-4.23354-2.33725-2.96877l.36652,17.82376c.01048.1911-.232.58102-.35675.58102h-5.97933l-.29536-.34496c-.00675-.09341.18037-.1729.18037-.22997v-27.94185h7.70413c1.52832,1.38641,7.44208,14.49441,8.27694,14.50195.29618.00268.53969-.24051.67621-.48963l7.32036-13.94962,7.98875-.0627Z" style="fill:#0065ca;"/><path d="M237.10325,175.01027h-6.78423c-.14635,0-1.68227-1.78478-2.07016-2.06937-2.41618-1.77269-5.88582-1.86464-8.59473-.77641-7.03035,2.82425-6.8346,13.65449.20134,16.299,4.19816,1.57791,9.09108.01958,11.00557-4.1061l-.59463-.58073c-.34003-.08155-.55339.2026-.63731.2026h-5.40439c-.35064-1.09352.01444-1.98765.01225-3.11133-.00168-.86671-.55406-1.70733.02093-2.60559l12.74242-.04365.79286.35618v15.63824l-.34496.34496h-4.82946c-.80214,0,.49148-3.02247-.1178-3.44861-.57283-.40065-1.59823,1.31545-2.06474,1.72601-6.23637,5.48849-18.23644.81169-21.31579-6.51549-5.94815-14.15338,10.05687-26.63079,22.8141-18.4446,2.30228,1.47735,4.80433,4.40291,5.16873,7.13489Z" style="fill:#0065ca;"/><path d="M355.07994,175.01027h-7.01421c-.12222,0-1.18128-1.5096-1.61172-1.83789-2.51323-1.91684-6.18056-2.18992-9.05768-1.01239-8.44971,3.45825-5.97251,18.26383,5.13113,16.85984,1.73027-.21878,5.9344-2.68528,6.11705-4.48056.13164-1.29387-.95086-.56001-1.2687-.56001h-5.05943c-.78478-.59539-.11973-1.57745-.13746-2.20959-.03143-1.12077-.55642-2.35977.05523-3.50771l13.27478-.00323.25018,15.74719c.05255.19166-.2359.55216-.33421.55216h-5.17442c.48899-6.12718-.44367-2.50057-2.78721-1.06241-6.72372,4.12617-17.12985.29688-20.25683-6.82507-4.96915-11.31763,4.20147-23.06368,16.3866-21.21606,4.88609.74087,10.35917,4.62489,11.48689,9.55574Z" style="fill:#0065ca;"/><path d="M149.02319,166.84619c.00424-.16411-.27642-.43828.05003-.75024.61225-.48801,1.23955-.04944,1.89562-.04432,4.82715.0377,9.65666-.06172,14.48351.00364,6.0197,1.87215,7.45451,9.30809,2.4327,13.20945,4.55583,2.58221,6.22949,8.96863,2.38664,12.96952-.63621.66238-3.32597,2.32383-4.11544,2.32383h-17.13307c.17786-9.2253-.23818-18.48727,0-27.71188ZM155.23249,171.56066v5.40439c0,.5798,1.3527.11365,1.71543.10401,2.64364-.07025,7.93281,1.11385,7.46722-3.0685-.08374-.7522-1.36584-2.43991-1.93847-2.43991h-7.24418ZM155.23249,182.59942v6.09431c0,.66124,2.15604.11832,2.63367.10417,1.88866-.05595,5.11129.61497,6.55391-.34552,1.63327-1.08741,1.95883-3.51586.59758-4.94432-.18541-.19456-1.25556-.90864-1.3911-.90864h-8.39405Z" style="fill:#0065ca;"/><path d="M14.60335,166.04128c1.61007.03328,2.53505.0558,3.99854,1.06089,4.29899,2.95242,4.20136,8.98816.26255,12.16255.81825.81308,1.90649,1.25525,2.62232,2.20127,3.11053,4.11077,2.16303,10.58883-2.88164,12.4943-.24304.0918-1.61184.59778-1.70204.59778H.34496l-.34496-.34496v-28.17182h14.60335ZM6.2093,171.56066v5.40439c0,.5798,1.35266.11365,1.71543.10401,3.24395-.0862,8.20608,1.2737,7.24815-3.77838-.08514-.44905-1.50742-1.73003-1.7194-1.73003h-7.24418ZM14.60335,182.59942c-2.26171-.45495-5.967.33839-8.39405,0v6.43927c1.48353.23658,3.10514-.22409,4.48537-.25016.96371-.0182,2.37612.32755,3.39438.1982,3.61059-.45865,3.43983-5.79883.5143-6.38731Z" style="fill:#0065ca;"/><path d="M144.6525,104.63707l-27.0131-4.36418c-.49272.09211-.94582.54801-1.0366,1.03665-.24115,1.29798-.0698,6.2282.23808,7.56913.54303,2.36506,3.21009,1.59944,4.92809,1.74116,1.36332.11247,7.38478,1.14075,8.11217.40348.5343-.54156-.09517-2.10085,1.0556-2.22543.93705.15764.82678,2.84467,3.12535,3.32727l11.98478.66303c.69953.31412,1.38355.30443,1.71977,1.036,2.44845,5.32752-3.58184,3.06498-6.22128,2.77635-7.03972-.76981-13.96906-1.34793-20.947-2.28038-1.83755-.24555-4.10992-.23715-5.89881-.77044-1.18713-.3539-1.44281-1.71674-1.5502-2.81931-.27877-2.86234-.38984-7.02777-.24303-9.89772.12256-2.3961.29906-4.42113,2.09422-6.18484,4.10093-2.02851,8.80786-7.094,12.78494-8.83107.57397-.25069.8626-.36697,1.52343-.22147,1.04421.22991,2.59566,2.7752,3.28603,3.61974,3.44887,4.21901,6.88155,8.44785,10.33065,12.66676.71973.88037,2.01426,1.3946,1.72691,2.75526Z" style="fill:#0065ca;"/><path d="M287.35258,166.04128c4.0395.71114,7.5236,5.48104,7.45706,9.50767-.07203,4.35882-2.70599,7.28724-6.62198,8.76663.75018,1.57211,2.43978,3.84173,4.27649,4.21101.67788.13629,2.4341-.14778,2.72144.26719l.1011,5.76429h-4.25452c-.24083,0-2.84899-.91078-3.25975-1.10976-3.44358-1.66816-4.78473-5.47173-6.62626-8.55209-.47426-.42483-3.07699-.53102-3.11092.59212l.23336,9.06973h-6.43927v-28.51679h15.52325ZM278.26861,171.79064c-.20821,1.72705.04255,3.58939.01087,5.41359-.00704.40559-.54117,2.17555.33409,2.17555h5.74935c.09771,0,1.54397-.28043,1.73277-.337,2.5505-.76413,2.9114-4.32779,1.13944-6.21481-.48888-.52062-1.73848-1.03734-2.41227-1.03734h-6.55426Z" style="fill:#0065ca;"/><path d="M245.54916,111.01431c.44045-.44066.57551-2.16689.90327-2.2477,1.90488-.46967,2.35013,2.7883,5.47207,2.29743.42716-.06716.76839-.38983,1.17469-.43375,2.3506-.25409,4.96155-.27039,7.34156-.47755,2.08014-.38728,2.1651-6.29823,1.93876-7.90838-.30429-2.16469-2.00516-1.8618-3.77066-1.74286-3.15724.21269-7.12906.77291-10.32382,1.1751-4.63646.58369-9.26777,1.41332-13.86184,2.26008-.62772.06887-1.22467-.537-.89189-1.13355,4.22064-5.20789,8.97756-9.93555,13.45898-14.90482,1.07666-1.19386,1.27028-2.67151,3.32414-2.33553.96384.15767,6.96454,4.70765,8.15792,5.64044,2.59892,2.0314,6.54256,4.55906,6.91913,8.02918.24819,2.28713-.27556,10.68811-1.1465,12.65478-.98309,2.21992-2.59043,1.48564-4.46117,1.74813-7.11014.99765-14.11659,1.72196-21.18277,2.50456-1.73754.19244-5.02345,1.09762-6.62348.63844-1.09357-.31383-1.03921-2.55316-.75362-3.41588.57888-1.74868,4.45942-1.03381,5.99209-1.13727,1.08868-.07349,2.33915-.37446,3.4422-.46736,1.50146-.12646,3.7151.43289,4.89092-.74349Z" style="fill:#0065ca;"/><path d="M239.86294,194.55807l10.45361-28.29544c.41456-.59392,6.76797-.05533,7.90602-.18184l10.6171,28.47729h-6.78423l-1.87138-5.02784-11.2508-.04526c-.28785-.01568-.47582.02047-.67127.24863-.8938,1.04337-.72582,3.76853-1.84478,4.82447h-6.55426ZM254.75176,173.46138c-.11284-.14193-.76125-.37601-.85845-.29137l-3.41751,10.05125.34598.49179c1.48755.09874,2.82434-.26259,4.34381-.20203.6753.02692,2.85904.79204,3.07654-.1316-.92703-2.03665-1.70403-4.1467-2.43382-6.26157-.2436-.70594-.76512-3.28992-1.05655-3.65648Z" style="fill:#0065ca;"/><path d="M325.87323,194.55807h-6.78423l-2.10673-5.02246-11.5799.07484-1.95161,4.94762h-6.55426l10.67783-28.53583,7.11752-.15479c.77195.14073,1.5114,3.28299,1.831,4.11983,3.12617,8.1856,6.23119,16.38495,9.35038,24.57079ZM311.04298,173.17137c-.52098.11865-2.72037,8.97531-3.75086,10.00659.61914,1.06671,1.65965.34626,2.58798.33224,1.22796-.01853,3.93749.48301,4.80303.20308.87139-.28181-.39529-2.2417-.64818-2.95905-.641-1.81831-1.46311-5.48894-2.24184-6.9571-.1347-.25395-.41424-.70226-.75013-.62577Z" style="fill:#0065ca;"/><path d="M70.48705,194.55807l-.2464-.46875,10.70805-27.93521,7.25325-.13039,11.04828,28.0656-.2464.46875h-6.78423c-.17739-.8904-1.05503-4.77991-1.76179-5.02245-3.43759.19642-7.41405-.38733-10.78517-.05035-2.25617.22553-1.51932,3.76943-2.97629,5.0728h-6.2093ZM85.0585,173.20442l-.86563-.00965-3.43863,10.02548.34699.49317c1.42576.17807,2.92543-.2177,4.33396-.2161.66578.00076,2.8572.68766,3.09429-.11715l-3.47098-10.17575Z" style="fill:#0065ca;"/><path d="M46.22478,188.57874c-.07467.22577.22997.4989.22997.57494v5.05943l-.34496.34496h-18.6279l-.34496-28.51679h18.74289c.6243,0,.11464,1.55391.10458,1.94523-.02358.91682.49496,3.73596-.37516,4.01623-.45014.14499-.75109-.21211-.87929-.21211h-11.03875l-.34496.34496v4.59948c0,.47764.82561.34496,1.03488.34496h10.11886c.66445,0,.15026,1.66564.16033,1.95521.04209,1.20988.61835,2.9832-.16033,4.02412h-10.57881c-.04065,0-.57494.53428-.57494.57494v4.59948c0,.47764.82561.34496,1.03488.34496h11.84366Z" style="fill:#0065ca;"/><path d="M379.22722,171.67565c-.0439.14841-.35217.37097-.55216.33421l-11.84228-.19562c-.25152,1.15467.01132,2.34853-.01374,3.55074-.00756.36272-.47631,1.71505.10456,1.71505h11.15374c.25006,1.2511-.03217,2.5046-.00941,3.80456.00718.40999.55545,2.17477-.10557,2.17477h-10.80878c-.86273,0-.35162,1.61301-.34549,1.95751.01307.73414-.24447,3.5975.37415,3.77474l12.50492-.21287v5.97933h-18.97286l-.34393-28.51553,18.30468-.22048c.19166-.05254.55216.2359.55216.33421v5.51938Z" style="fill:#0065ca;"/><path d="M122.49634,234.60738c.9706-.32209,2.4079.36186,3.26729.80327,2.28419,1.17325,4.74762,3.27401,7.04343,4.68525,34.77614,21.37694,76.69311,22.01582,111.77253.91912,2.39954-1.44308,7.16934-5.27764,9.3421-6.06629.6089-.22101,2.65448-.88947,2.74591.20391l-.35505.80834c-12.5087,9.34495-26.62092,16.57333-41.9215,20.17038-9.96495,2.34269-19.42057,2.80458-29.59799,2.57846-22.68916-.50412-44.25241-9.28983-62.33832-22.74884l-.35505-.80834c.00791-.27785.12899-.45643.39666-.54525Z" style="fill:#0065ca;"/><path d="M245.10524,153.80337c-1.21583.36793-2.41162.03788-3.50842.03881-10.82128.00912-21.67389.18238-32.42593.24994-3.36023.02112-7.57793.28788-10.82906.00132-4.5555-.40153,1.93458-4.61065,3.3639-5.16675,3.00464-1.16901,7.38004-.39861,10.67705-.59168,10.03738-.58778,20.07095-.8309,30.12733-1.3793,1.29577-.07066,3.45177-.27576,3.58541,1.48943.07605,1.00456-.20909,3.57551-.55838,4.53164-.10635.29112-.28328.55885-.43189.82658Z" style="fill:#0065ca;"/><path d="M176.29743,150.96361c1.31252,1.10553,2.1516,2.86894-.253,3.11856-2.20436.22883-4.86138-.4052-7.13755-.23659-9.49984.70372-18.93334.04165-28.51873-.00382-2.03561-.00966-4.36021.31616-6.41263-.00424-2.42411-.37842-2.99263-5.58167-1.27525-6.30427.92985-.39124,1.85567.26277,2.85982.3497,7.74326.67033,16.07754-.00749,23.92517.45206,5.18384.30356,12.50744-.99725,16.81216,2.6286Z" style="fill:#0065ca;"/><path d="M56.80359,166.04128l-.18334,22.14549.76315.62207,10.70362-.1297c.47414.33098-.22706,4.89917.21527,5.87892h-17.93798v-28.51679h6.43927Z" style="fill:#0065ca;"/><path d="M182.5994,166.04128v28.17182l-.34496.34496h-5.74935l-.35757-28.36395c.91506-.79206,2.07884-.14447,3.10624-.14209,1.20772.00279,2.23993-.39687,3.34564-.01075Z" style="fill:#0065ca;"/><path d="M194.55805,194.55807h-6.2093v-28.4018c.89695-.80517,2.26293-.1062,3.33092-.09714,1.34061.01137,2.87838-1.0011,2.87838.78706v27.71188Z" style="fill:#0065ca;"/><path d="M123.45786,72.26826c1.47003-.0418,3.32015.24677,3.66462,1.95156.23228,1.14959.16542,6.5307-.73084,7.21019-.29592.22434-.87519.28214-1.2521.3057-1.34002.08376-9.52167-1.72778-10.77663-2.34561-1.2351-.60806-.75684-1.46593-.24927-2.41716,1.3795-2.5853,6.50455-4.62393,9.34422-4.70468Z" style="fill:#0065ca;"/><path d="M252.45141,72.49666c2.33301-.41563,5.5083.40783,7.57309,1.51615,1.20778.6483,4.70617,3.30712,3.64883,4.87793-1.45067.49435-10.64475,3.43665-11.38585,3.09821-1.24913-.57044-.81248-2.8453-.92803-3.91058-.19575-1.80483-1.40919-5.13613,1.09195-5.58171Z" style="fill:#0065ca;"/></g></svg>